<svg width="24" height="24" viewBox="0 0 24 24" fill="none" xmlns="http://www.w3.org/2000/svg">
<g id="Delivery">
<path id="Icon" d="M5 8.98372V16.9946M9.5 8.98372V16.9946M14.5 8.98372V16.9946M19 8.98372V16.9946M3 18.5967L3 19.3978C3 19.9586 3 20.239 3.10899 20.4532C3.20487 20.6417 3.35785 20.7949 3.54601 20.8909C3.75992 21 4.03995 21 4.6 21H19.4C19.9601 21 20.2401 21 20.454 20.8909C20.6422 20.7949 20.7951 20.6417 20.891 20.4532C21 20.239 21 19.9586 21 19.3978V18.5967C21 18.0359 21 17.7555 20.891 17.5413C20.7951 17.3529 20.6422 17.1997 20.454 17.1037C20.2401 16.9946 19.9601 16.9946 19.4 16.9946H4.6C4.03995 16.9946 3.75992 16.9946 3.54601 17.1037C3.35785 17.1997 3.20487 17.3529 3.10899 17.5413C3 17.7555 3 18.0359 3 18.5967ZM11.6529 3.05281L4.25291 4.69948C3.80585 4.79897 3.58232 4.84871 3.41546 4.96908C3.26829 5.07525 3.15273 5.21951 3.08115 5.38641C3 5.57562 3 5.80492 3 6.2635L3 7.38154C3 7.94236 3 8.22276 3.10899 8.43696C3.20487 8.62538 3.35785 8.77857 3.54601 8.87457C3.75992 8.98371 4.03995 8.98371 4.6 8.98371H19.4C19.9601 8.98371 20.2401 8.98371 20.454 8.87457C20.6422 8.77857 20.7951 8.62538 20.891 8.43696C21 8.22276 21 7.94236 21 7.38154V6.2635C21 5.80492 21 5.57562 20.9188 5.38641C20.8473 5.21951 20.7317 5.07525 20.5845 4.96908C20.4177 4.84871 20.1942 4.79897 19.7471 4.69949L12.3471 3.05281C12.2176 3.02399 12.1528 3.00957 12.0874 3.00383C12.0292 2.99872 11.9708 2.99872 11.9126 3.00383C11.8472 3.00957 11.7824 3.02399 11.6529 3.05281Z" stroke="#2B2B2B" stroke-width="2" stroke-linecap="round" stroke-linejoin="round"/>
</g>
</svg>
