<svg width="20" height="21" viewBox="0 0 20 21" fill="none" xmlns="http://www.w3.org/2000/svg">
<g id="calendar">
<path id="Icon" d="M17.5 8.83332H2.5M13.3333 2.16666V5.49999M6.66667 2.16666V5.49999M6.5 18.8333H13.5C14.9001 18.8333 15.6002 18.8333 16.135 18.5608C16.6054 18.3212 16.9878 17.9387 17.2275 17.4683C17.5 16.9335 17.5 16.2335 17.5 14.8333V7.83332C17.5 6.43319 17.5 5.73313 17.2275 5.19835C16.9878 4.72794 16.6054 4.34549 16.135 4.10581C15.6002 3.83332 14.9001 3.83332 13.5 3.83332H6.5C5.09987 3.83332 4.3998 3.83332 3.86502 4.10581C3.39462 4.34549 3.01217 4.72794 2.77248 5.19835C2.5 5.73313 2.5 6.43319 2.5 7.83332V14.8333C2.5 16.2335 2.5 16.9335 2.77248 17.4683C3.01217 17.9387 3.39462 18.3212 3.86502 18.5608C4.3998 18.8333 5.09987 18.8333 6.5 18.8333Z" stroke="#2B2B2B" stroke-width="1.5" stroke-linecap="round" stroke-linejoin="round"/>
</g>
</svg>
