<svg width="28" height="28" viewBox="0 0 28 28" fill="none" xmlns="http://www.w3.org/2000/svg">
<g id="shopping-bag">
<path id="Icon" d="M18.6671 10.5V7C18.6671 4.42267 16.5778 2.33334 14.0005 2.33334C11.4231 2.33334 9.3338 4.42267 9.3338 7V10.5M4.19114 12.0773L3.49114 19.544C3.29211 21.6669 3.1926 22.7284 3.54486 23.5483C3.85432 24.2686 4.39661 24.8641 5.08483 25.2394C5.86825 25.6667 6.9344 25.6667 9.06669 25.6667H18.9342C21.0665 25.6667 22.1327 25.6667 22.9161 25.2394C23.6043 24.8641 24.1466 24.2686 24.4561 23.5483C24.8083 22.7284 24.7088 21.6669 24.5098 19.544L23.8098 12.0773C23.6417 10.2846 23.5577 9.38821 23.1545 8.71053C22.7995 8.11368 22.2749 7.63597 21.6475 7.33815C20.9351 7 20.0348 7 18.2342 7L9.76669 7C7.96611 7 7.06582 7 6.35346 7.33815C5.72608 7.63596 5.20148 8.11368 4.84641 8.71052C4.44324 9.38821 4.35921 10.2846 4.19114 12.0773Z" stroke="#2B2B2B" stroke-width="1.5" stroke-linecap="round" stroke-linejoin="round"/>
</g>
</svg>
