<svg width="16" height="16" viewBox="0 0 16 16" fill="none" xmlns="http://www.w3.org/2000/svg">
<g id="Language" clip-path="url(#clip0_13_18184)">
<path id="Icon" d="M1.33337 8H14.6667M1.33337 8C1.33337 11.6819 4.31814 14.6667 8.00004 14.6667M1.33337 8C1.33337 4.3181 4.31814 1.33333 8.00004 1.33333M14.6667 8C14.6667 11.6819 11.6819 14.6667 8.00004 14.6667M14.6667 8C14.6667 4.3181 11.6819 1.33333 8.00004 1.33333M8.00004 1.33333C9.66756 3.1589 10.6152 5.52802 10.6667 8C10.6152 10.472 9.66756 12.8411 8.00004 14.6667M8.00004 1.33333C6.33252 3.1589 5.38487 5.52802 5.33337 8C5.38487 10.472 6.33252 12.8411 8.00004 14.6667" stroke="#2B2B2B" stroke-width="1.25" stroke-linecap="round" stroke-linejoin="round"/>
</g>
<defs>
<clipPath id="clip0_13_18184">
<rect width="16" height="16" fill="white"/>
</clipPath>
</defs>
</svg>
