<svg width="126" height="40" viewBox="0 0 126 40" fill="none" xmlns="http://www.w3.org/2000/svg">
<g id="Logo">
<g id="Union">
<path d="M77.0101 34.1438L77.1821 33.9465C77.2614 33.858 77.3398 33.7673 77.4171 33.6779L77.4814 33.6035L77.6535 33.4011C77.7025 33.339 77.7507 33.276 77.7986 33.2126C77.8496 33.1448 77.9004 33.0766 77.9509 33.0084C77.9958 32.9449 78.0438 32.8832 78.0885 32.8197C78.2021 32.6585 78.3106 32.4938 78.4189 32.3257C78.4446 32.2863 78.4705 32.2486 78.4945 32.2091C78.7629 31.7815 79.0129 31.335 79.2445 30.8696C79.2702 30.8199 79.2927 30.7684 79.3168 30.7169C79.3814 30.5855 79.4424 30.4523 79.5041 30.3179L79.5141 30.2955L79.5748 30.163C79.586 30.138 79.5969 30.1131 79.6077 30.0882C79.6252 30.0479 79.6421 30.0077 79.6591 29.9674C79.7024 29.8712 79.7449 29.77 79.7866 29.6673C79.819 29.5871 79.8509 29.506 79.8827 29.4255C79.9084 29.3569 79.9342 29.2883 79.9618 29.2197C80.0323 29.0327 80.101 28.844 80.1664 28.6519C80.1889 28.5885 80.2112 28.525 80.2319 28.4616C80.2547 28.3924 80.2773 28.323 80.2996 28.2535C80.3303 28.1575 80.3606 28.0612 80.3903 27.9645L80.4348 27.8184C80.4469 27.7755 80.4605 27.7326 80.4726 27.6898C80.713 26.8652 80.9077 26.0281 81.0557 25.1822V25.1497C81.1039 24.8787 81.1469 24.606 81.1865 24.3315C81.1865 24.2972 81.1865 24.2629 81.2003 24.2286C81.2184 24.1003 81.2352 23.9711 81.2512 23.8418C81.267 23.7138 81.2819 23.5857 81.2965 23.4585C81.2965 23.4373 81.2965 23.416 81.2987 23.3948C81.3004 23.3783 81.3034 23.3618 81.3086 23.3454C81.3206 23.2306 81.3318 23.1158 81.3424 23.0007C81.35 22.9202 81.357 22.8396 81.3639 22.7587C81.3698 22.6891 81.3755 22.6195 81.3809 22.5495V22.4741C81.4905 20.9681 81.4825 19.456 81.3567 17.9513V17.929C81.3326 17.6374 81.3034 17.3476 81.2707 17.0577V17.0131C81.2364 16.7215 81.1984 16.43 81.1554 16.1401C80.0977 8.9932 76.3392 2.65582 70.0575 2.10526V3.25268C74.9788 4.22344 78.787 7.84064 79.494 16.5106L79.5056 16.6529L79.5071 16.6718C79.5185 16.8116 79.5299 16.9517 79.5387 17.0954C79.5387 17.2138 79.5508 17.3356 79.5576 17.4556L79.5592 17.4821C79.5689 17.6618 79.5785 17.8403 79.5869 18.025C79.5954 18.2188 79.5869 18.3784 79.6006 18.5567V18.5635C79.6006 18.7052 79.6006 18.8437 79.6109 18.9889V20.0009C79.0312 27.0329 75.29 29.6056 70.5065 30.6638V37.267C70.761 37.2516 71.0105 37.2258 71.2547 37.1933C71.2802 37.19 71.3056 37.1861 71.331 37.1818L71.3943 37.1707C71.4276 37.1648 71.4607 37.1588 71.4937 37.1538C71.6658 37.1281 71.8206 37.1006 71.9789 37.0663C72.0029 37.0614 72.0261 37.0561 72.0491 37.0505L72.1045 37.0368C72.1509 37.0251 72.1981 37.0129 72.2506 37.0012C72.3934 36.9669 72.5379 36.9291 72.679 36.888L72.9508 36.8022C73.0867 36.7576 73.2226 36.7096 73.3549 36.6581C73.4426 36.6255 73.5269 36.5912 73.6146 36.5552C73.6477 36.5413 73.6806 36.5271 73.7136 36.5129L73.8105 36.4706L73.8125 36.4698C73.8795 36.4405 73.946 36.4115 74.0121 36.3837L74.0855 36.3489L74.152 36.3175C74.1841 36.3022 74.2161 36.2866 74.2477 36.2705C74.3332 36.2269 74.4169 36.1814 74.4999 36.1348C74.5571 36.1028 74.6139 36.0702 74.6709 36.0373C74.6937 36.0242 74.7169 36.0114 74.7401 35.9985C74.7779 35.9776 74.8158 35.9567 74.8531 35.9344C75.0491 35.8143 75.2437 35.6874 75.4311 35.5536L75.4706 35.5244C75.6426 35.3992 75.8146 35.2672 75.9866 35.13C76.0101 35.1108 76.0331 35.091 76.0563 35.0711C76.0891 35.0428 76.1223 35.014 76.1586 34.9859C76.2791 34.883 76.3995 34.7767 76.5164 34.6669C76.5749 34.612 76.6332 34.554 76.6899 34.4973L76.7005 34.4868C76.7702 34.4183 76.8388 34.3491 76.9066 34.2792C76.9441 34.2405 76.9814 34.2017 77.0187 34.1626L77.0101 34.1438Z" fill="#2B2B2B"/>
<path d="M84.4046 24.5751H89.7145C89.7145 27.3279 91.2866 28.9367 94.0043 28.9367C96.5122 28.9367 97.8298 27.8784 97.8298 25.8494C97.8298 23.3303 95.3889 22.5427 92.6259 21.6512C89.023 20.4887 84.8724 19.1494 84.8724 13.564C84.8724 9.11668 88.2266 6.10835 93.7498 6.10835C99.7822 6.10835 102.672 9.07209 102.672 14.8761H97.5323C97.5323 12.42 96.4262 11.0651 93.6244 11.0651C91.2436 11.0651 90.2253 12.1233 90.2253 13.564C90.2253 15.8201 92.5611 16.5307 95.2425 17.3465C98.8558 18.4457 103.097 19.7359 103.097 25.256C103.097 30.5489 99.6979 33.8968 94.259 33.8968C87.6333 33.8968 84.4046 30.8456 84.4046 24.5785V24.5751Z" fill="#2B2B2B"/>
<path fill-rule="evenodd" clip-rule="evenodd" d="M2.11765 6.44796H10.3655C17.3765 6.44796 21.1142 11.8266 21.1142 20.0455C21.1142 28.3484 17.5021 33.5589 10.6217 33.5589H2.11765V6.44796ZM9.42455 28.6914C13.078 28.6914 15.4569 27.4205 15.4999 20.1364C15.4999 12.8917 13.035 11.324 9.33855 11.324H7.47056V28.6914H9.42455Z" fill="#2B2B2B"/>
<path d="M30.3287 6.44967H24.9758V33.5606H30.3287V6.44967Z" fill="#2B2B2B"/>
<path d="M42.8938 6.44796H36.1392V33.5589H41.5351V15.8949L49.776 33.5589H56.2349V6.44796H50.839V24.2818L42.8938 6.44796Z" fill="#2B2B2B"/>
<path d="M110.5 24.5751H105.19V24.5785C105.19 30.8456 108.419 33.8968 115.046 33.8968C120.484 33.8968 123.882 30.5489 123.882 25.256C123.882 19.7359 119.641 18.4457 116.028 17.3465C113.347 16.5307 111.011 15.8201 111.011 13.564C111.011 12.1233 112.029 11.0651 114.41 11.0651C117.214 11.0651 118.318 12.42 118.318 14.8761H123.459C123.459 9.07209 120.57 6.10835 114.537 6.10835C109.014 6.10835 105.658 9.11668 105.658 13.564C105.658 19.1494 109.809 20.4887 113.412 21.6512C116.175 22.5427 118.615 23.3303 118.615 25.8494C118.615 27.8784 117.298 28.9367 114.792 28.9367C112.072 28.9367 110.5 27.3279 110.5 24.5751Z" fill="#2B2B2B"/>
<path d="M61.1526 19.0678C61.094 19.4829 61.0441 19.9134 61.008 20.3593L60.9994 20.3405C60.891 31.2126 64.5118 35.3907 69.7718 36.6341C69.8536 36.6529 69.9354 36.6712 70.0172 36.689C70.1074 36.7087 70.1976 36.7276 70.2878 36.7456V37.8947C70.0505 37.8742 69.8183 37.845 69.5879 37.8073C69.5366 37.7995 69.4869 37.7889 69.4367 37.7782C69.4093 37.7723 69.3818 37.7664 69.3539 37.761C69.2822 37.748 69.2104 37.7346 69.1392 37.7204C69.0599 37.7047 68.9811 37.6881 68.9032 37.6701C68.8051 37.6478 68.7226 37.622 68.6331 37.598L68.6296 37.597C68.4984 37.5614 68.367 37.5256 68.2392 37.4848C68.1733 37.4641 68.1083 37.4409 68.0428 37.4174L67.9624 37.3888C67.8402 37.3459 67.7181 37.303 67.5977 37.255C67.5048 37.219 67.4359 37.1898 67.3225 37.1384C67.2626 37.1112 67.1966 37.0808 67.1336 37.0517C67.0771 37.0257 67.0232 37.0009 66.9785 36.9806C66.934 36.9605 66.8972 36.9404 66.8591 36.9196C66.8161 36.896 66.7712 36.8715 66.7118 36.8451C66.6001 36.7953 66.4642 36.7233 66.3799 36.6736C66.3275 36.6426 66.2829 36.6157 66.2309 36.5841L66.1235 36.5192C66.0152 36.454 65.9085 36.3854 65.8037 36.3151L65.5576 36.1436C65.4528 36.0681 65.3495 35.991 65.2464 35.9121C65.1689 35.8606 65.0915 35.8023 65.0159 35.7405C64.9695 35.7005 64.9233 35.6619 64.8771 35.6234C64.8204 35.5761 64.7639 35.529 64.708 35.4799L64.6531 35.4321C64.601 35.3868 64.5491 35.3416 64.498 35.2946C64.3932 35.1968 64.2899 35.0974 64.1868 34.9962C64.1248 34.9344 64.063 34.8761 64.001 34.8127C63.8891 34.6978 63.7808 34.5777 63.6741 34.4576L63.528 34.2998C63.3887 34.1455 63.251 33.974 63.1169 33.8025C63.1048 33.7853 63.091 33.7716 63.0789 33.7544C62.7798 33.3788 62.4976 32.9758 62.2293 32.5539C62.2124 32.528 62.1962 32.5006 62.1803 32.4737L62.1554 32.4321C62.0487 32.2606 61.9454 32.089 61.844 31.9175L61.7528 31.746C61.6548 31.59 61.5705 31.4184 61.4828 31.2469C61.4501 31.1852 61.4192 31.1217 61.3883 31.0583C61.3039 30.8988 61.2213 30.7272 61.1422 30.5557C61.1113 30.4906 61.082 30.4254 61.0528 30.3585C61.0029 30.2479 60.953 30.1374 60.9045 30.0269C60.8778 29.9659 60.8514 29.9049 60.8257 29.8439C60.7965 29.7788 60.7706 29.7119 60.7432 29.6467C60.6692 29.4666 60.5986 29.2848 60.5282 29.1013C60.5166 29.0694 60.5045 29.0374 60.4926 29.0053C60.4814 28.9752 60.4701 28.945 60.4593 28.9144C60.3888 28.7223 60.3199 28.5285 60.2546 28.3329L60.1978 28.1614C60.1291 27.9539 60.0638 27.7429 60.0018 27.5302C59.988 27.4857 59.9742 27.4428 59.9623 27.3982C59.8934 27.1649 59.8281 26.9282 59.7661 26.6898C59.7643 26.682 59.7616 26.674 59.7589 26.6658C59.754 26.6509 59.749 26.6357 59.749 26.6212C59.1916 24.4159 58.9029 22.1516 58.8889 19.8774V19.8568C58.8804 19.5789 58.8889 19.3011 58.8889 19.0232V18.9907C58.8958 18.7162 58.9061 18.4401 58.9198 18.1657V18.1502C59.3223 10.3653 62.895 3.16007 69.8424 2.74843V9.35166C65.666 10.2675 62.4907 12.6121 61.3658 17.8741C61.327 18.0602 61.2923 18.2528 61.2593 18.448C61.2411 18.5551 61.2235 18.663 61.2058 18.7711C61.1983 18.8208 61.189 18.8683 61.1798 18.9161C61.1702 18.9656 61.1605 19.0154 61.1526 19.0678Z" fill="#2B2B2B"/>
</g>
</g>
</svg>
