<svg width="24" height="24" viewBox="0 0 24 24" fill="none" xmlns="http://www.w3.org/2000/svg">
<g id="Delivery">
<path id="Union" fill-rule="evenodd" clip-rule="evenodd" d="M11.821 2C9.74069 2.01369 7.75043 2.84148 6.2854 4.30237C4.82037 5.76328 3.99975 7.73845 4.00294 9.79606L4 21.9999H7.44006V21.9616C7.44511 20.8183 7.90162 19.7216 8.71311 18.9059C9.53367 18.081 10.6506 17.6105 11.8205 17.5968C13.901 17.5837 15.8917 16.7562 17.3568 15.2952C18.822 13.8341 19.6406 11.8539 19.6368 9.79606C19.6406 7.73866 18.8205 5.76348 17.3558 4.30252C15.8912 2.84155 13.9012 2.01369 11.821 2ZM16.1967 9.79606C16.2037 8.6388 15.747 7.52589 14.9266 6.70074C14.1061 5.87561 12.9887 5.40541 11.8187 5.39298C10.6488 5.40602 9.53175 5.87643 8.71143 6.70142C7.89113 7.52642 7.43426 8.63898 7.44062 9.79606L7.44006 15.5564C8.72352 14.6912 10.2474 14.2142 11.8229 14.2039C12.9925 14.1908 14.1093 13.7204 14.9292 12.8953C15.7492 12.0702 16.2037 10.9529 16.1967 9.79606Z" fill="#2B2B2B"/>
</g>
</svg>
