<svg width="20" height="20" viewBox="0 0 20 20" fill="none" xmlns="http://www.w3.org/2000/svg">
<g id="Print/download">
<path id="Rectangle" d="M14.6429 15H16.9C17.2314 15 17.5 14.7314 17.5 14.4V9.83333C17.5 7.62419 15.7091 5.83333 13.5 5.83333H13.3333M14.6429 15L14.9169 16.9293C14.96 17.2305 14.7262 17.5 14.422 17.5H5.57496C5.27069 17.5 5.03696 17.2305 5.07999 16.9293L5.3556 15M14.6429 15L14.2265 12.096C14.1913 11.8496 13.9803 11.6667 13.7315 11.6667H6.26544C6.01661 11.6667 5.80565 11.8496 5.77047 12.096L5.3556 15M5.3556 15H3.1C2.76863 15 2.5 14.7314 2.5 14.4V9.83333C2.5 7.62419 4.29086 5.83333 6.5 5.83333H6.66667M13.3333 5.83333V3C13.3333 2.72386 13.1095 2.5 12.8333 2.5H7.16667C6.89052 2.5 6.66667 2.72386 6.66667 3V5.83333M13.3333 5.83333H6.66667" stroke="#2B2B2B" stroke-width="1.5"/>
<path id="Vector" d="M14.168 8.34165L14.1763 8.33239" stroke="black" stroke-width="1.5" stroke-linecap="round" stroke-linejoin="round"/>
</g>
</svg>
