<svg width="24" height="24" viewBox="0 0 24 24" fill="none" xmlns="http://www.w3.org/2000/svg">
<g id="Socials_Icon">
<path id="youtube" d="M19.649 8.16807C20 9.39659 20 12.0291 20 12.0291C20 12.0291 20 14.6324 19.649 15.8902C19.4735 16.5922 18.9177 17.1187 18.245 17.2942C16.9872 17.616 12.0146 17.616 12.0146 17.616C12.0146 17.616 7.0128 17.616 5.75503 17.2942C5.08227 17.1187 4.52651 16.5922 4.35101 15.8902C4 14.6324 4 12.0291 4 12.0291C4 12.0291 4 9.39659 4.35101 8.16807C4.52651 7.46606 5.08227 6.9103 5.75503 6.73479C7.0128 6.38379 12.0146 6.38379 12.0146 6.38379C12.0146 6.38379 16.9872 6.38379 18.245 6.73479C18.9177 6.9103 19.4735 7.46606 19.649 8.16807ZM10.3766 14.3984L14.5302 12.0291L10.3766 9.65984V14.3984Z" fill="white"/>
</g>
</svg>
